<?xml version="1.0" encoding="UTF-8"?>
<svg height="128px" viewBox="0 0 128 128" width="128px" xmlns="http://www.w3.org/2000/svg" xmlns:xlink="http://www.w3.org/1999/xlink">
    <linearGradient id="a" gradientTransform="matrix(0.0490588 0 0 0.0491874 1.865927 22.210236)" gradientUnits="userSpaceOnUse" x1="1270.359619" x2="1264.01709" y1="2303.902344" y2="855.262329">
        <stop offset="0" stop-color="#426fcf"/>
        <stop offset="1" stop-color="#ffffff"/>
    </linearGradient>
    <path d="m 62.035156 22.46875 c -1.496094 2.40625 -2.871094 4.882812 -4.246094 7.359375 c -0.140624 0.261719 -0.28125 0.523437 -0.425781 0.785156 c 0 0 -0.027343 0.050781 -0.035156 0.066407 c -0.933594 1.703124 -1.898437 3.390624 -2.695313 5.160156 c -0.171874 0.378906 -0.332031 0.757812 -0.496093 1.136718 c -0.367188 0.859376 -0.71875 1.722657 -1.054688 2.59375 c -2.664062 -2.132812 -5.554687 -3.972656 -8.59375 -5.511718 c -1.667969 -0.828125 -3.378906 -1.582032 -5.144531 -2.171875 c -0.769531 -0.257813 -1.535156 -0.515625 -2.300781 -0.777344 c -0.117188 1.023437 -0.238281 2.042969 -0.355469 3.066406 c -0.320312 2.953125 -0.464844 5.929688 -0.3125 8.898438 c 0.042969 0.832031 0.109375 1.660156 0.203125 2.488281 c -0.777344 -0.296875 -1.558594 -0.585938 -2.339844 -0.871094 c -3.199219 -1.132812 -6.425781 -2.199218 -9.691406 -3.121094 c -1.121094 -0.316406 -2.25 -0.605468 -3.375 -0.902343 c -0.355469 -0.097657 -0.714844 -0.191407 -1.074219 -0.285157 c 0.039063 0.957032 0.074219 1.917969 0.109375 2.875 c 0.070313 1.40625 0.480469 2.78125 1.128907 4.027344 c 0.566406 1.089844 1.316406 2.078125 2.1875 2.941406 c 0.210937 0.214844 0.425781 0.433594 0.640624 0.648438 c 0.378907 -0.050781 0.753907 -0.109375 1.132813 -0.160156 c 0.519531 -0.050782 1.042969 0.039062 1.542969 0.175781 c 0.191406 0.054687 0.386718 0.113281 0.574218 0.183594 c 2.355469 0.976562 4.6875 2.003906 7 3.078125 c 0 0 0.050782 0.023437 0.070313 0.03125 c 1.582031 0.738281 3.15625 1.496094 4.714844 2.28125 c 0 0.003906 0.050781 0.027344 0.066406 0.035156 c 1.03125 0.519531 2.054687 1.046875 3.066406 1.589844 c 3.460938 1.851562 6.871094 3.8125 10.101563 6.046875 c 0.730468 0.507812 1.460937 1.011719 2.195312 1.519531 c 0.324219 -0.800781 0.65625 -1.605469 0.980469 -2.40625 c 0.15625 -0.394531 0.238281 -0.808594 0.328125 -1.222656 c 0.027344 -0.128906 0.0625 -0.257813 0.109375 -0.378906 c 0.761719 -2.21875 1.636719 -4.394532 2.632813 -6.515626 c -0.003907 0.003907 0.023437 -0.050781 0.03125 -0.070312 c 0.078124 -0.167969 0.15625 -0.339844 0.25 -0.5 c 1.558593 -2.917969 3.136718 -5.824219 4.792968 -8.683594 c 0.234375 0.402344 0.464844 0.804688 0.695313 1.207032 c 0.007812 0.007812 0.027343 0.050781 0.042969 0.070312 c 1.476562 2.585938 2.890624 5.207031 4.28125 7.839844 c 0.625 1.332031 1.203124 2.679687 1.734374 4.046875 c 0 -0.007813 0.023438 0.050781 0.027344 0.070312 c 0.546875 1.40625 1.042969 2.832031 1.484375 4.277344 c 0.253907 0.8125 0.507813 1.625 0.761719 2.4375 c 0.898438 -0.617187 1.796875 -1.238281 2.695312 -1.855469 c 4.601563 -3.125 9.566407 -5.679687 14.691407 -7.820312 c 0.097656 -0.039063 0.191406 -0.078125 0.285156 -0.117188 c 0.003906 -0.003906 0.050781 -0.023437 0.074219 -0.03125 c 0.589844 -0.246094 1.183594 -0.484375 1.777344 -0.71875 c 0 0 0.050781 -0.019531 0.070312 -0.027344 c 0.675781 -0.265624 1.351562 -0.523437 2.03125 -0.777343 c 1.828125 -0.671875 3.691406 -1.230469 5.527344 -1.871094 c 1.597656 -0.511719 3.257812 -0.855469 4.933594 -0.953125 c 0.246093 -0.015625 0.488281 -0.03125 0.734374 -0.046875 c 0.253907 -0.273437 0.515626 -0.539063 0.765626 -0.816406 c 1.25 -1.386719 2.140624 -3.082031 2.625 -4.886719 c 0.257812 -0.945312 0.402343 -1.921875 0.433593 -2.902344 c 0.035157 -0.871094 0.074219 -1.742187 0.109375 -2.609375 c -1.304687 0.335938 -2.613281 0.671875 -3.917968 1.011719 c -3.335938 0.875 -6.65625 1.800781 -9.953126 2.804688 c -0.503906 0.152343 -1.011718 0.304687 -1.515624 0.464843 c -1 0.324219 -2 0.640625 -2.992188 0.984375 c 0.152344 -1.300781 0.230469 -2.613281 0.265625 -3.921875 c 0.050781 -2.78125 -0.117187 -5.5625 -0.449219 -8.320312 c -0.09375 -0.777344 -0.183594 -1.554688 -0.277344 -2.335938 c -0.910156 0.320313 -1.824218 0.636719 -2.738281 0.960938 c -3.855469 1.378906 -7.484375 3.351562 -10.839843 5.695312 c -0.792969 0.554688 -1.566407 1.132813 -2.324219 1.730469 c -0.105469 0.082031 -0.207031 0.164062 -0.308594 0.246094 c -0.671875 -1.765625 -1.417969 -3.503906 -2.234375 -5.207032 c -2.144531 -4.027343 -4.332031 -8.035156 -6.699219 -11.933593 c -0.210937 -0.347657 -0.421875 -0.699219 -0.632812 -1.046875 c -0.765625 0 -1.53125 0 -2.296875 0 c -0.195313 0.3125 -0.390625 0.628906 -0.585938 0.941406 z m 0 0"/>
    <path d="m 62.273438 46.875 c -2.070313 3.394531 -3.996094 6.875 -5.878907 10.378906 c -0.308593 0.570313 -0.613281 1.136719 -0.914062 1.710938 c -1.039063 2.179687 -1.976563 4.414062 -2.777344 6.695312 c -1.078125 -1.082031 -2.300781 -2.011718 -3.558594 -2.871094 c -0.328125 -0.222656 -0.667969 -0.433593 -1.003906 -0.644531 c -3.019531 -1.878906 -6.257813 -3.371093 -9.570313 -4.644531 c -1.199218 -0.460938 -2.410156 -0.894531 -3.625 -1.3125 c -0.957031 -0.332031 -1.910156 -0.664062 -2.867187 -0.996094 c 0.015625 0.105469 0.03125 0.210938 0.046875 0.320313 c -0.972656 -0.664063 -1.988281 -1.265625 -3.027344 -1.820313 c -3.355468 -1.789062 -6.949218 -3.085937 -10.621094 -4.046875 c -0.890624 -0.234375 -1.785156 -0.445312 -2.683593 -0.640625 c -2.992188 -0.636718 -6.019531 -1.140625 -9.078125 -1.3125 c -2.464844 -0.144531 -4.929688 -0.285156 -7.398438 -0.429687 c 2.097656 1.394531 4.191406 2.789062 6.289063 4.183593 c 1.085937 0.742188 1.984375 1.738282 2.734375 2.8125 c 0.667968 0.960938 1.230468 1.992188 1.730468 3.050782 c 1.015626 2.152344 1.730469 4.4375 2.257813 6.753906 c 0.042969 0.15625 0.09375 0.308594 0.144531 0.460938 c 1.132813 3.496093 2.78125 6.832031 4.941406 9.804687 c 2.734376 3.777344 6.277344 6.945313 10.285157 9.3125 c 3.574219 2.128906 7.5 3.621094 11.539062 4.5625 c 0.082031 0.019531 0.164063 0.035156 0.242188 0.058594 c 1.703125 2.023437 3.792969 3.742187 6.175781 4.898437 c 0.648438 0.3125 1.316406 0.589844 1.996094 0.828125 c 2.882812 1.003907 5.996094 1.28125 9.023437 0.925781 c 0.1875 -0.023437 0.375 -0.035156 0.5625 -0.066406 c 0.300781 -0.042968 0.597657 -0.109375 0.898438 -0.167968 c 1.542969 0.984374 3.199219 1.804687 4.957031 2.320312 c 0.324219 0.09375 0.652344 0.175781 0.980469 0.265625 c 0.5 -0.152344 1.007812 -0.300781 1.503906 -0.476563 c 1.515625 -0.539062 2.96875 -1.269531 4.316406 -2.152343 c 2.417969 0.492187 4.921875 0.566406 7.359375 0.1875 c 1.988282 -0.3125 3.9375 -0.929688 5.726563 -1.855469 c 2.140625 -1.109375 4.035156 -2.664062 5.601562 -4.492188 c 0.066407 -0.078124 0.128907 -0.15625 0.195313 -0.234374 c 4.839844 -1.054688 9.5 -2.988282 13.613281 -5.765626 c 3.085937 -2.082031 5.84375 -4.664062 8.082031 -7.644531 c 0.839844 -1.113281 1.609375 -2.277343 2.304688 -3.488281 c 1.195312 -2.085938 2.171875 -4.296875 2.933594 -6.578125 c 0.230468 -0.644531 0.371093 -1.3125 0.53125 -1.976563 c 0.082031 -0.34375 0.183593 -0.679687 0.28125 -1.019531 c 0.640624 -2.175781 1.46875 -4.304687 2.605468 -6.269531 c 0.578125 -0.992188 1.246094 -1.941406 2.039063 -2.777344 c 0.507812 -0.535156 1.066406 -1.019531 1.683593 -1.425781 c 1.957032 -1.332031 3.914063 -2.664063 5.871094 -3.996094 c -2.472656 0.132813 -4.941406 0.261719 -7.414062 0.394531 c -1.628906 0.097657 -3.246094 0.320313 -4.859375 0.5625 c -3.949219 0.625 -7.855469 1.558594 -11.613281 2.925782 c -1.234376 0.449218 -2.453126 0.941406 -3.640626 1.492187 c -1.550781 0.71875 -3.058593 1.53125 -4.492187 2.460938 c -1.320313 0.421875 -2.644531 0.847656 -3.964844 1.273437 c -2.730469 0.890625 -5.398437 1.980469 -7.996093 3.210938 c -2.207032 1.066406 -4.371094 2.246094 -6.363282 3.679687 c -0.601562 0.429688 -1.1875 0.882813 -1.746094 1.367188 c -0.445312 0.378906 -0.871093 0.777343 -1.277343 1.195312 c -0.238281 -0.683593 -0.488281 -1.363281 -0.75 -2.039062 c -0.824219 -2.105469 -1.703125 -4.191407 -2.785157 -6.175781 c -0.164062 -0.300782 -0.335937 -0.601563 -0.496093 -0.902344 c -1.5625 -2.859375 -3.105469 -5.726563 -4.796875 -8.511719 c -0.542969 -0.898437 -1.105469 -1.777344 -1.660156 -2.664063 c -0.308594 -0.484374 -0.613282 -0.96875 -0.917969 -1.457031 c -0.558594 0.921875 -1.117188 1.839844 -1.675781 2.761719 z m 0 0"/>
    <path d="m 19.128906 76.625 c -1.894531 0.152344 -3.773437 0.511719 -5.578125 1.109375 c -0.949219 0.335937 -1.882812 0.738281 -2.714843 1.308594 c -0.492188 0.335937 -0.945313 0.730469 -1.339844 1.179687 c -0.410156 0.449219 -0.816406 0.902344 -1.226563 1.351563 c 0.515625 0.511719 1.03125 1.023437 1.546875 1.53125 c 1.078125 1.042969 2.3125 1.914062 3.632813 2.621093 c -0.691407 0.628907 -1.335938 1.3125 -1.921875 2.042969 c -1.042969 1.273438 -2.082032 2.546875 -3.121094 3.820313 c 1.707031 -0.214844 3.417969 -0.433594 5.128906 -0.648438 c 0.796875 -0.089844 1.601563 -0.097656 2.402344 -0.066406 c -0.351562 0.449219 -0.679688 0.917969 -0.988281 1.398438 c -0.46875 0.714843 -0.9375 1.429687 -1.410157 2.144531 c 0.996094 0.289062 1.992188 0.578125 2.988282 0.867187 c 2.203125 0.621094 4.464844 1.046875 6.75 1.21875 l 3.75 2.332032 c 0.375 0.222656 0.792968 0.367187 1.214844 0.46875 c 0.148437 0.035156 0.300781 0.070312 0.445312 0.121093 c 1.796875 0.472657 3.632812 0.789063 5.480469 0.957031 c 3.273437 0.300782 6.578125 0.144532 9.824219 -0.363281 c 1.167968 -0.179687 2.328124 -0.40625 3.476562 -0.675781 c 2.464844 -0.59375 4.90625 -1.316406 7.230469 -2.34375 c 0.101562 -0.050781 0.210937 -0.089844 0.308593 -0.152344 c 1.800782 -1.082031 3.601563 -2.164062 5.402344 -3.242187 c -2.128906 -0.179688 -4.257812 -0.355469 -6.382812 -0.53125 c -1.726563 0.070312 -3.46875 0.011719 -5.167969 -0.320313 c -1.125 -0.21875 -2.230469 -0.566406 -3.261719 -1.070312 c -1.085937 -0.53125 -2.089844 -1.246094 -2.898437 -2.148438 c -0.390625 -0.433594 -0.730469 -0.910156 -1.007813 -1.421875 c -0.246094 -0.4375 -0.492187 -0.878906 -0.738281 -1.316406 c -0.550781 0.160156 -1.097656 0.320313 -1.648437 0.480469 c -0.429688 0.109375 -0.878907 0.113281 -1.324219 0.101562 c -0.390625 -0.011718 -0.78125 -0.035156 -1.175781 -0.054687 c -1.597657 -0.117188 -3.179688 -0.421875 -4.707032 -0.90625 c -1.066406 -0.34375 -2.121094 -0.738281 -3.101562 -1.28125 c -0.359375 -0.199219 -0.707032 -0.421875 -1.039063 -0.660157 c -1.84375 -1.269531 -3.554687 -2.742187 -5.0625 -4.398437 c -0.484375 -0.53125 -0.980469 -1.050781 -1.394531 -1.640625 c -0.167969 -0.242188 -0.320312 -0.5 -0.445312 -0.773438 c -0.191407 -0.382812 -0.378907 -0.769531 -0.566407 -1.152343 c -0.453125 0.035156 -0.90625 0.074219 -1.359375 0.113281 z m 0 0"/>
    <path d="m 107.628906 77.679688 c -0.382812 0.742187 -0.910156 1.394531 -1.46875 2.007812 c -0.613281 0.671875 -1.273437 1.300781 -1.90625 1.953125 c -1.425781 1.324219 -2.960937 2.535156 -4.628906 3.539063 c -2.441406 1.242187 -5.140625 1.964843 -7.867188 2.152343 c -0.4375 0.03125 -0.875 0.046875 -1.3125 0.046875 c -0.453124 0 -0.910156 -0.035156 -1.347656 -0.15625 c -0.492187 -0.125 -0.980468 -0.25 -1.472656 -0.375 c -0.277344 0.519532 -0.550781 1.039063 -0.832031 1.558594 c -0.5 0.890625 -1.21875 1.644531 -2.03125 2.253906 c -0.898438 0.671875 -1.910157 1.183594 -2.96875 1.558594 c -1.617188 0.570312 -3.335938 0.8125 -5.046875 0.867188 c -0.714844 0.019531 -1.429688 0.007812 -2.140625 -0.019532 c -2.078125 0.195313 -4.15625 0.390625 -6.238281 0.585938 c 1.789062 1.082031 3.578124 2.167968 5.367187 3.25 c 2.507813 1.097656 5.136719 1.902344 7.804687 2.515625 c 3.550782 0.800781 7.199219 1.214843 10.839844 1.097656 c 2.222656 -0.074219 4.4375 -0.34375 6.605469 -0.839844 c 0.214844 -0.054687 0.429687 -0.109375 0.648437 -0.160156 c 0.613282 -0.144531 1.230469 -0.300781 1.804688 -0.5625 c 1.816406 -0.835937 3.628906 -1.675781 5.441406 -2.515625 c -0.078125 -0.015625 -0.15625 -0.035156 -0.234375 -0.050781 c 2.042969 -0.234375 4.058594 -0.667969 6.023438 -1.261719 c 0.855469 -0.25 1.707031 -0.503906 2.558593 -0.757812 c -0.589843 -0.84375 -1.179687 -1.691407 -1.769531 -2.535157 c -0.234375 -0.324219 -0.472656 -0.644531 -0.71875 -0.957031 c 0.878907 -0.035156 1.765625 -0.019531 2.636719 0.105469 c 1.601562 0.210937 3.199219 0.421875 4.800781 0.632812 c -1.066406 -1.351562 -2.128906 -2.703125 -3.195312 -4.054687 c -0.53125 -0.660156 -1.117188 -1.269532 -1.746094 -1.835938 c 1.402344 -0.753906 2.699219 -1.695312 3.851563 -2.796875 c 0.453124 -0.425781 0.902343 -0.851562 1.355468 -1.28125 c -0.464844 -0.523437 -0.925781 -1.050781 -1.394531 -1.574219 c -0.597656 -0.65625 -1.335937 -1.167968 -2.121094 -1.574218 c -0.351562 -0.179688 -0.714843 -0.34375 -1.082031 -0.492188 c -1.792969 -0.703125 -3.695312 -1.097656 -5.605469 -1.316406 c -0.589843 -0.070312 -1.183593 -0.121094 -1.777343 -0.183594 c -0.066407 -0.007812 -0.136719 -0.011718 -0.207032 -0.019531 c -0.207031 0.398437 -0.417968 0.796875 -0.625 1.195313 z m 0 0"/>
    <path d="m 68.484375 93.019531 c -0.117187 0.390625 -0.382813 0.71875 -0.691406 0.972657 c -0.394531 0.324218 -0.855469 0.554687 -1.339844 0.707031 c -0.800781 0.242187 -1.640625 0.402343 -2.484375 0.382812 c -0.273438 -0.003906 -0.542969 -0.035156 -0.808594 -0.078125 c -0.742187 -0.105468 -1.480468 -0.285156 -2.15625 -0.613281 c -0.339844 -0.164063 -0.660156 -0.367187 -0.941406 -0.621094 c -0.257812 -0.238281 -0.460938 -0.542969 -0.574219 -0.875 c -0.339843 -0.910156 -0.683593 -1.824219 -1.027343 -2.734375 c -0.761719 0.703125 -1.523438 1.398438 -2.289063 2.101563 c -0.867187 0.816406 -1.542969 1.828125 -2.015625 2.921875 c -0.375 0.867187 -0.628906 1.789062 -0.773438 2.722656 c -0.027343 0.179688 -0.054687 0.355469 -0.085937 0.535156 c 0.128906 0.273438 0.25 0.554688 0.386719 0.828125 c 0.445312 0.875 1.089844 1.636719 1.839844 2.265625 c 0.800781 0.671875 1.722656 1.199219 2.6875 1.601563 c 1.9375 0.773437 4.03125 1.136719 6.113281 1.09375 c 1.585937 -0.035157 3.167969 -0.296875 4.675781 -0.789063 c 1.304688 -0.4375 2.550781 -1.085937 3.59375 -1.992187 c 0.664062 -0.574219 1.242188 -1.253907 1.683594 -2.015625 c 0.214844 -0.332032 0.339844 -0.71875 0.367187 -1.113282 c 0.023438 -0.28125 -0.007812 -0.566406 -0.070312 -0.84375 c -0.027344 -0.175781 -0.074219 -0.347656 -0.113281 -0.523437 c -0.308594 -1.234375 -0.804688 -2.429687 -1.542969 -3.46875 c -0.367188 -0.515625 -0.792969 -0.988281 -1.273438 -1.402344 c -0.738281 -0.660156 -1.480469 -1.324219 -2.21875 -1.984375 c -0.316406 0.972656 -0.628906 1.949219 -0.941406 2.921875 z m 0 0"/>
    <g fill="#ffffff">
        <path d="m 63.730469 23.53125 h 0.0625 c 2.363281 3.886719 4.542969 7.878906 6.683593 11.890625 c 1.152344 2.414063 2.160157 4.902344 3.007813 7.441406 c 0.019531 0.085938 0.117187 0.320313 0.222656 0.152344 c 1.363281 -1.257813 2.824219 -2.40625 4.332031 -3.480469 c 3.378907 -2.386718 7.054688 -4.382812 10.964844 -5.742187 c 0.316406 2.640625 0.46875 5.296875 0.421875 7.957031 c -0.070312 2.394531 -0.277343 4.800781 -0.886719 7.125 c 2.039063 -0.980469 4.210938 -1.640625 6.355469 -2.335938 c 4.144531 -1.285156 8.328125 -2.453124 12.53125 -3.53125 c -0.089843 2.449219 -1.03125 4.875 -2.734375 6.652344 c -1.832031 0.113282 -3.640625 0.488282 -5.382812 1.046875 c -2.046875 0.714844 -4.128906 1.328125 -6.15625 2.109375 c -6.757813 2.542969 -13.320313 5.707032 -19.273438 9.824219 c -0.902344 -2.921875 -2.019531 -5.777344 -3.320312 -8.542969 c -2.164063 -4.101562 -4.394532 -8.171875 -6.804688 -12.128906 c -2.363281 3.878906 -4.535156 7.867188 -6.675781 11.875 c -1.125 2.34375 -2.101563 4.757812 -2.941406 7.21875 c -0.1875 0.5 -0.210938 1.039062 -0.417969 1.53125 c -3.648438 -2.539062 -7.523438 -4.734375 -11.453125 -6.800781 c -4.621094 -2.417969 -9.359375 -4.609375 -14.175781 -6.605469 c -1.023438 -0.359375 -2.125 -0.601562 -3.214844 -0.433594 c -1.519531 -1.519531 -2.613281 -3.5625 -2.679688 -5.746094 c 3.863282 1.011719 7.660157 2.253907 11.425782 3.589844 c 1.890625 0.695313 3.792968 1.378906 5.59375 2.285156 c -0.414063 -1.511718 -0.625 -3.070312 -0.757813 -4.632812 c -0.289062 -3.480469 -0.121093 -6.984375 0.285157 -10.453125 c 1.671874 0.5625 3.292968 1.28125 4.875 2.0625 c 3.742187 1.902344 7.253906 4.277344 10.367187 7.105469 c 0.648437 -1.949219 1.402344 -3.867188 2.226563 -5.746094 c 0.949218 -2.230469 2.199218 -4.308594 3.339843 -6.441406 c 1.351563 -2.441406 2.703125 -4.882813 4.179688 -7.246094 z m 0 0"/>
        <path d="m 63.980469 47.914062 c 2.101562 3.320313 3.953125 6.796876 5.839843 10.246094 c 1.179688 2.089844 2.109376 4.304688 2.984376 6.539063 c 0.707031 1.855469 1.34375 3.742187 1.839843 5.667969 c 0.800781 -1.871094 2.253907 -3.359376 3.8125 -4.621094 c 2.191407 -1.75 4.65625 -3.117188 7.171875 -4.332032 c 2.644532 -1.25 5.359375 -2.347656 8.140625 -3.234374 c -0.570312 0.769531 -0.78125 1.730468 -0.855469 2.671874 c 2.949219 -3.167968 6.746094 -5.414062 10.714844 -7.054687 c 4.226563 -1.738281 8.683594 -2.859375 13.1875 -3.570313 c 1.609375 -0.238281 3.222656 -0.464843 4.847656 -0.542968 c -1.644531 1.105468 -2.941406 2.65625 -3.976562 4.335937 c -1.460938 2.382813 -2.476562 5.015625 -3.230469 7.703125 c -0.234375 0.796875 -0.359375 1.628906 -0.640625 2.414063 c -1.121094 3.351562 -2.730468 6.546875 -4.855468 9.375 c -2.0625 2.773437 -4.601563 5.183593 -7.445313 7.140625 c -4.117187 2.832031 -8.832031 4.757812 -13.71875 5.75 c -0.152344 0.019531 -0.230469 0.175781 -0.320313 0.273437 c -1.46875 1.84375 -3.296874 3.410157 -5.390624 4.5 c -3.84375 2 -8.425782 2.355469 -12.601563 1.316407 c -1.652344 1.1875 -3.496094 2.113281 -5.445313 2.691406 c -1.949218 -0.511719 -3.777343 -1.464844 -5.441406 -2.597656 c -0.671875 0.046874 -1.332031 0.273437 -2.011718 0.320312 c -3.175782 0.398438 -6.476563 0.03125 -9.421876 -1.253906 c -2.601562 -1.117188 -4.835937 -2.980469 -6.574218 -5.199219 c -4.164063 -0.882813 -8.222656 -2.359375 -11.890625 -4.546875 c -3.769531 -2.226562 -7.105469 -5.207031 -9.675781 -8.761719 c -2.101563 -2.902343 -3.691407 -6.160156 -4.761719 -9.578125 c -0.617188 -2.699218 -1.480469 -5.351562 -2.730469 -7.824218 c -1.183594 -2.335938 -2.734375 -4.59375 -4.953125 -6.050782 c 3.003906 0.164063 5.980469 0.667969 8.917969 1.292969 c 4.578125 1.011719 9.089844 2.488281 13.203125 4.769531 c 2.449219 1.355469 4.722656 3.046875 6.644531 5.09375 c -0.082031 -0.894531 -0.25 -1.824218 -0.796875 -2.558594 c -0.003906 -0.03125 -0.011719 -0.097656 -0.019531 -0.128906 c 4.65625 1.605469 9.257812 3.5 13.390625 6.214844 c 2.136719 1.449219 4.246093 3.144531 5.457031 5.484375 c 0.023438 -0.003906 0.070312 -0.003906 0.097656 -0.003906 c 0.960938 -3.441407 2.265625 -6.785157 3.796875 -10.007813 c 2.148438 -4.027344 4.335938 -8.035156 6.710938 -11.933594 z m 0 0"/>
        <path d="m 14.21875 79.625 c 1.640625 -0.539062 3.351562 -0.867188 5.078125 -1.003906 c 0.53125 1.113281 1.398437 2.015625 2.222656 2.917968 c 1.59375 1.730469 3.386719 3.269532 5.328125 4.601563 c 1.414063 1.023437 3.050782 1.671875 4.699219 2.207031 c 1.679687 0.523438 3.421875 0.855469 5.179687 0.980469 c 1.085938 0.046875 2.203126 0.160156 3.261719 -0.164063 c 1.089844 1.96875 2.894531 3.457032 4.910157 4.402344 c 2.859374 1.351563 6.082031 1.636719 9.203124 1.507813 c -2.304687 1.042969 -4.75 1.761719 -7.203124 2.347656 c -5.78125 1.332031 -11.902344 1.597656 -17.671876 0.074219 c -0.40625 -0.136719 -0.859374 -0.175782 -1.222656 -0.410156 c 1.226563 -0.28125 2.46875 -0.621094 3.570313 -1.261719 c 0.6875 -0.371094 1.085937 -1.070313 1.59375 -1.640625 c 0.308593 -0.386719 0.644531 -0.753906 0.96875 -1.132813 c -1.996094 0.703125 -4.0625 1.234375 -6.171875 1.414063 c -3.792969 0.371094 -7.625 -0.148438 -11.265625 -1.214844 c 0.957031 -1.480469 2.179687 -2.761719 3.417969 -4.007812 c -2.320313 -0.238282 -4.664063 -0.566407 -6.992188 -0.265626 c 1.203125 -1.492187 2.683594 -2.746093 4.300781 -3.765624 c -2.371093 -0.722657 -4.625 -1.949219 -6.390625 -3.710938 c 0.839844 -0.9375 2.019532 -1.46875 3.183594 -1.875 z m 0 0"/>
        <path d="m 105.648438 83.074219 c 1.351562 -1.390625 2.847656 -2.71875 3.75 -4.464844 c 1.957031 0.191406 3.921874 0.546875 5.757812 1.273437 c 0.921875 0.386719 1.84375 0.867188 2.503906 1.636719 c -1.796875 1.710938 -4.011718 2.980469 -6.390625 3.683594 c 1.589844 1.054687 3.109375 2.261719 4.289063 3.78125 c -2.332032 -0.320313 -4.6875 0.023437 -7.007813 0.261719 c 1.28125 1.207031 2.445313 2.542968 3.449219 3.992187 c -4.332031 1.296875 -8.972656 1.761719 -13.4375 0.921875 c -1.375 -0.246094 -2.710938 -0.652344 -4.019531 -1.132812 c 0.574219 0.6875 1.164062 1.371094 1.722656 2.074218 c 0.347656 0.457032 0.847656 0.757813 1.359375 1 c 0.976562 0.460938 2.023438 0.753907 3.074219 0.988282 c -0.679688 0.320312 -1.433594 0.433594 -2.152344 0.632812 c -5.464844 1.253906 -11.195313 0.964844 -16.636719 -0.273437 c -2.519531 -0.582031 -5.007812 -1.34375 -7.382812 -2.382813 c 2.777344 0.125 5.625 -0.078125 8.246094 -1.074218 c 2.394531 -0.910157 4.667968 -2.5 5.878906 -4.816407 c 0.96875 0.257813 1.976562 0.222657 2.96875 0.171875 c 3.113281 -0.175781 6.195312 -0.992187 8.972656 -2.414062 c 1.820312 -1.089844 3.503906 -2.410156 5.054688 -3.859375 z m 0 0"/>
        <path d="m 55.367188 98.160156 c 0.261718 -1.6875 0.984374 -3.367187 2.265624 -4.523437 c 0.269532 0.742187 0.765626 1.390625 1.390626 1.871093 c 1.121093 0.875 2.519531 1.292969 3.910156 1.488282 c 1.390625 0.226562 2.824218 0.015625 4.160156 -0.398438 c 1.4375 -0.464844 2.824219 -1.460937 3.289062 -2.960937 c 1.203126 1.054687 1.882813 2.589843 2.214844 4.132812 c 0.027344 0.195313 0.125 0.421875 -0.019531 0.605469 c -0.898437 1.597656 -2.542969 2.617188 -4.242187 3.175781 c -3.035157 0.976563 -6.417969 0.910157 -9.382813 -0.273437 c -1.46875 -0.621094 -2.914063 -1.628906 -3.585937 -3.117188 z m 0 0"/>
    </g>
    <path d="m 63.730469 23.53125 h 0.0625 c 2.363281 3.886719 4.542969 7.878906 6.683593 11.890625 c 1.152344 2.414063 2.160157 4.902344 3.007813 7.441406 c 0.019531 0.085938 0.117187 0.320313 0.222656 0.152344 c 1.363281 -1.257813 2.824219 -2.40625 4.332031 -3.480469 c 3.378907 -2.386718 7.054688 -4.382812 10.964844 -5.742187 c 0.316406 2.640625 0.46875 5.296875 0.421875 7.957031 c -0.070312 2.394531 -0.277343 4.800781 -0.886719 7.125 c 2.039063 -0.980469 4.210938 -1.640625 6.355469 -2.335938 c 4.144531 -1.285156 8.328125 -2.453124 12.53125 -3.53125 c -0.089843 2.449219 -1.03125 4.875 -2.734375 6.652344 c -1.832031 0.113282 -3.640625 0.488282 -5.382812 1.046875 c -2.046875 0.714844 -4.128906 1.328125 -6.15625 2.109375 c -6.757813 2.542969 -13.320313 5.707032 -19.273438 9.824219 c -0.902344 -2.921875 -2.019531 -5.777344 -3.320312 -8.542969 c -2.164063 -4.101562 -4.394532 -8.171875 -6.804688 -12.128906 c -2.363281 3.878906 -4.535156 7.867188 -6.675781 11.875 c -1.125 2.34375 -2.101563 4.757812 -2.941406 7.21875 c -0.1875 0.5 -0.210938 1.039062 -0.417969 1.53125 c -3.648438 -2.539062 -7.523438 -4.734375 -11.453125 -6.800781 c -4.621094 -2.417969 -9.359375 -4.609375 -14.175781 -6.605469 c -1.023438 -0.359375 -2.125 -0.601562 -3.214844 -0.433594 c -1.519531 -1.519531 -2.613281 -3.5625 -2.679688 -5.746094 c 3.863282 1.011719 7.660157 2.253907 11.425782 3.589844 c 1.890625 0.695313 3.792968 1.378906 5.59375 2.285156 c -0.414063 -1.511718 -0.625 -3.070312 -0.757813 -4.632812 c -0.289062 -3.480469 -0.121093 -6.984375 0.285157 -10.453125 c 1.671874 0.5625 3.292968 1.28125 4.875 2.0625 c 3.742187 1.902344 7.253906 4.277344 10.367187 7.105469 c 0.648437 -1.949219 1.402344 -3.867188 2.226563 -5.746094 c 0.949218 -2.230469 2.199218 -4.308594 3.339843 -6.441406 c 1.351563 -2.441406 2.703125 -4.882813 4.179688 -7.246094 z m 0 0" fill="url(#a)"/>
    <path d="m 63.980469 47.914062 c 2.101562 3.320313 3.953125 6.796876 5.839843 10.246094 c 1.179688 2.089844 2.109376 4.304688 2.984376 6.539063 c 0.707031 1.855469 1.34375 3.742187 1.839843 5.667969 c 0.800781 -1.871094 2.253907 -3.359376 3.8125 -4.621094 c 2.191407 -1.75 4.65625 -3.117188 7.171875 -4.332032 c 2.644532 -1.25 5.359375 -2.347656 8.140625 -3.234374 c -0.570312 0.769531 -0.78125 1.730468 -0.855469 2.671874 c 2.949219 -3.167968 6.746094 -5.414062 10.714844 -7.054687 c 4.226563 -1.738281 8.683594 -2.859375 13.1875 -3.570313 c 1.609375 -0.238281 3.222656 -0.464843 4.847656 -0.542968 c -1.644531 1.105468 -2.941406 2.65625 -3.976562 4.335937 c -1.460938 2.382813 -2.476562 5.015625 -3.230469 7.703125 c -0.234375 0.796875 -0.359375 1.628906 -0.640625 2.414063 c -1.121094 3.351562 -2.730468 6.546875 -4.855468 9.375 c -2.0625 2.773437 -4.601563 5.183593 -7.445313 7.140625 c -4.117187 2.832031 -8.832031 4.757812 -13.71875 5.75 c -0.152344 0.019531 -0.230469 0.175781 -0.320313 0.273437 c -1.46875 1.84375 -3.296874 3.410157 -5.390624 4.5 c -3.84375 2 -8.425782 2.355469 -12.601563 1.316407 c -1.652344 1.1875 -3.496094 2.113281 -5.445313 2.691406 c -1.949218 -0.511719 -3.777343 -1.464844 -5.441406 -2.597656 c -0.671875 0.046874 -1.332031 0.273437 -2.011718 0.320312 c -3.175782 0.398438 -6.476563 0.03125 -9.421876 -1.253906 c -2.601562 -1.117188 -4.835937 -2.980469 -6.574218 -5.199219 c -4.164063 -0.882813 -8.222656 -2.359375 -11.890625 -4.546875 c -3.769531 -2.226562 -7.105469 -5.207031 -9.675781 -8.761719 c -2.101563 -2.902343 -3.691407 -6.160156 -4.761719 -9.578125 c -0.617188 -2.699218 -1.480469 -5.351562 -2.730469 -7.824218 c -1.183594 -2.335938 -2.734375 -4.59375 -4.953125 -6.050782 c 3.003906 0.164063 5.980469 0.667969 8.917969 1.292969 c 4.578125 1.011719 9.089844 2.488281 13.203125 4.769531 c 2.449219 1.355469 4.722656 3.046875 6.644531 5.09375 c -0.082031 -0.894531 -0.25 -1.824218 -0.796875 -2.558594 c -0.003906 -0.03125 -0.011719 -0.097656 -0.019531 -0.128906 c 4.65625 1.605469 9.257812 3.5 13.390625 6.214844 c 2.136719 1.449219 4.246093 3.144531 5.457031 5.484375 c 0.023438 -0.003906 0.070312 -0.003906 0.097656 -0.003906 c 0.960938 -3.441407 2.265625 -6.785157 3.796875 -10.007813 c 2.148438 -4.027344 4.335938 -8.035156 6.710938 -11.933594 z m 0 0" fill="url(#a)"/>
    <path d="m 14.21875 79.625 c 1.640625 -0.539062 3.351562 -0.867188 5.078125 -1.003906 c 0.53125 1.113281 1.398437 2.015625 2.222656 2.917968 c 1.59375 1.730469 3.386719 3.269532 5.328125 4.601563 c 1.414063 1.023437 3.050782 1.671875 4.699219 2.207031 c 1.679687 0.523438 3.421875 0.855469 5.179687 0.980469 c 1.085938 0.046875 2.203126 0.160156 3.261719 -0.164063 c 1.089844 1.96875 2.894531 3.457032 4.910157 4.402344 c 2.859374 1.351563 6.082031 1.636719 9.203124 1.507813 c -2.304687 1.042969 -4.75 1.761719 -7.203124 2.347656 c -5.78125 1.332031 -11.902344 1.597656 -17.671876 0.074219 c -0.40625 -0.136719 -0.859374 -0.175782 -1.222656 -0.410156 c 1.226563 -0.28125 2.46875 -0.621094 3.570313 -1.261719 c 0.6875 -0.371094 1.085937 -1.070313 1.59375 -1.640625 c 0.308593 -0.386719 0.644531 -0.753906 0.96875 -1.132813 c -1.996094 0.703125 -4.0625 1.234375 -6.171875 1.414063 c -3.792969 0.371094 -7.625 -0.148438 -11.265625 -1.214844 c 0.957031 -1.480469 2.179687 -2.761719 3.417969 -4.007812 c -2.320313 -0.238282 -4.664063 -0.566407 -6.992188 -0.265626 c 1.203125 -1.492187 2.683594 -2.746093 4.300781 -3.765624 c -2.371093 -0.722657 -4.625 -1.949219 -6.390625 -3.710938 c 0.839844 -0.9375 2.019532 -1.46875 3.183594 -1.875 z m 0 0" fill="url(#a)"/>
    <path d="m 105.648438 83.074219 c 1.351562 -1.390625 2.847656 -2.71875 3.75 -4.464844 c 1.957031 0.191406 3.921874 0.546875 5.757812 1.273437 c 0.921875 0.386719 1.84375 0.867188 2.503906 1.636719 c -1.796875 1.710938 -4.011718 2.980469 -6.390625 3.683594 c 1.589844 1.054687 3.109375 2.261719 4.289063 3.78125 c -2.332032 -0.320313 -4.6875 0.023437 -7.007813 0.261719 c 1.28125 1.207031 2.445313 2.542968 3.449219 3.992187 c -4.332031 1.296875 -8.972656 1.761719 -13.4375 0.921875 c -1.375 -0.246094 -2.710938 -0.652344 -4.019531 -1.132812 c 0.574219 0.6875 1.164062 1.371094 1.722656 2.074218 c 0.347656 0.457032 0.847656 0.757813 1.359375 1 c 0.976562 0.460938 2.023438 0.753907 3.074219 0.988282 c -0.679688 0.320312 -1.433594 0.433594 -2.152344 0.632812 c -5.464844 1.253906 -11.195313 0.964844 -16.636719 -0.273437 c -2.519531 -0.582031 -5.007812 -1.34375 -7.382812 -2.382813 c 2.777344 0.125 5.625 -0.078125 8.246094 -1.074218 c 2.394531 -0.910157 4.667968 -2.5 5.878906 -4.816407 c 0.96875 0.257813 1.976562 0.222657 2.96875 0.171875 c 3.113281 -0.175781 6.195312 -0.992187 8.972656 -2.414062 c 1.820312 -1.089844 3.503906 -2.410156 5.054688 -3.859375 z m 0 0" fill="url(#a)"/>
    <path d="m 55.367188 98.160156 c 0.261718 -1.6875 0.984374 -3.367187 2.265624 -4.523437 c 0.269532 0.742187 0.765626 1.390625 1.390626 1.871093 c 1.121093 0.875 2.519531 1.292969 3.910156 1.488282 c 1.390625 0.226562 2.824218 0.015625 4.160156 -0.398438 c 1.4375 -0.464844 2.824219 -1.460937 3.289062 -2.960937 c 1.203126 1.054687 1.882813 2.589843 2.214844 4.132812 c 0.027344 0.195313 0.125 0.421875 -0.019531 0.605469 c -0.898437 1.597656 -2.542969 2.617188 -4.242187 3.175781 c -3.035157 0.976563 -6.417969 0.910157 -9.382813 -0.273437 c -1.46875 -0.621094 -2.914063 -1.628906 -3.585937 -3.117188 z m 0 0" fill="url(#a)"/>
</svg>
